<svg xmlns="http://www.w3.org/2000/svg" width="1024" height="1024" viewBox="0 0 1024 1024"><style>@font-face{font-family:"Plus Jakarta Sans";font-weight:800;src:url("file:///home/claude/belote/flutter_app/assets/fonts/PlusJakartaSans_800ExtraBold.ttf")}</style><defs><radialGradient id="g" cx="50%" cy="42%" r="75%"><stop offset="0" stop-color="#175A55"/><stop offset=".55" stop-color="#134E4A"/><stop offset="1" stop-color="#0F3E3A"/></radialGradient></defs><rect width="1024" height="1024" fill="url(#g)"/><g transform="translate(512 530) scale(1.5)">
  <g transform="rotate(12) translate(-150 -230)">
    <rect width="300" height="420" rx="40" fill="#0E1514"/>
    <rect x="16" y="16" width="268" height="388" rx="28" fill="#18221F" stroke="#F5B544" stroke-opacity=".6" stroke-width="5"/>
    <g fill="#F5B544"><circle cx="40" cy="40" r="5"/><circle cx="40" cy="70" r="5"/><circle cx="40" cy="100" r="5"/><circle cx="40" cy="130" r="5"/><circle cx="40" cy="160" r="5"/><circle cx="40" cy="190" r="5"/><circle cx="40" cy="220" r="5"/><circle cx="40" cy="250" r="5"/><circle cx="40" cy="280" r="5"/><circle cx="40" cy="310" r="5"/><circle cx="40" cy="340" r="5"/><circle cx="40" cy="370" r="5"/><circle cx="70" cy="40" r="5"/><circle cx="70" cy="70" r="5"/><circle cx="70" cy="100" r="5"/><circle cx="70" cy="130" r="5"/><circle cx="70" cy="160" r="5"/><circle cx="70" cy="190" r="5"/><circle cx="70" cy="220" r="5"/><circle cx="70" cy="250" r="5"/><circle cx="70" cy="280" r="5"/><circle cx="70" cy="310" r="5"/><circle cx="70" cy="340" r="5"/><circle cx="70" cy="370" r="5"/><circle cx="100" cy="40" r="5"/><circle cx="100" cy="70" r="5"/><circle cx="100" cy="100" r="5"/><circle cx="100" cy="130" r="5"/><circle cx="100" cy="160" r="5"/><circle cx="100" cy="190" r="5"/><circle cx="100" cy="220" r="5"/><circle cx="100" cy="250" r="5"/><circle cx="100" cy="280" r="5"/><circle cx="100" cy="310" r="5"/><circle cx="100" cy="340" r="5"/><circle cx="100" cy="370" r="5"/><circle cx="130" cy="40" r="5"/><circle cx="130" cy="70" r="5"/><circle cx="130" cy="100" r="5"/><circle cx="130" cy="130" r="5"/><circle cx="130" cy="160" r="5"/><circle cx="130" cy="190" r="5"/><circle cx="130" cy="220" r="5"/><circle cx="130" cy="250" r="5"/><circle cx="130" cy="280" r="5"/><circle cx="130" cy="310" r="5"/><circle cx="130" cy="340" r="5"/><circle cx="130" cy="370" r="5"/><circle cx="160" cy="40" r="5"/><circle cx="160" cy="70" r="5"/><circle cx="160" cy="100" r="5"/><circle cx="160" cy="130" r="5"/><circle cx="160" cy="160" r="5"/><circle cx="160" cy="190" r="5"/><circle cx="160" cy="220" r="5"/><circle cx="160" cy="250" r="5"/><circle cx="160" cy="280" r="5"/><circle cx="160" cy="310" r="5"/><circle cx="160" cy="340" r="5"/><circle cx="160" cy="370" r="5"/><circle cx="190" cy="40" r="5"/><circle cx="190" cy="70" r="5"/><circle cx="190" cy="100" r="5"/><circle cx="190" cy="130" r="5"/><circle cx="190" cy="160" r="5"/><circle cx="190" cy="190" r="5"/><circle cx="190" cy="220" r="5"/><circle cx="190" cy="250" r="5"/><circle cx="190" cy="280" r="5"/><circle cx="190" cy="310" r="5"/><circle cx="190" cy="340" r="5"/><circle cx="190" cy="370" r="5"/><circle cx="220" cy="40" r="5"/><circle cx="220" cy="70" r="5"/><circle cx="220" cy="100" r="5"/><circle cx="220" cy="130" r="5"/><circle cx="220" cy="160" r="5"/><circle cx="220" cy="190" r="5"/><circle cx="220" cy="220" r="5"/><circle cx="220" cy="250" r="5"/><circle cx="220" cy="280" r="5"/><circle cx="220" cy="310" r="5"/><circle cx="220" cy="340" r="5"/><circle cx="220" cy="370" r="5"/><circle cx="250" cy="40" r="5"/><circle cx="250" cy="70" r="5"/><circle cx="250" cy="100" r="5"/><circle cx="250" cy="130" r="5"/><circle cx="250" cy="160" r="5"/><circle cx="250" cy="190" r="5"/><circle cx="250" cy="220" r="5"/><circle cx="250" cy="250" r="5"/><circle cx="250" cy="280" r="5"/><circle cx="250" cy="310" r="5"/><circle cx="250" cy="340" r="5"/><circle cx="250" cy="370" r="5"/></g>
  </g>
  <g transform="rotate(-10) translate(-190 -240)">
    <rect width="300" height="420" rx="40" fill="#FFFFFF"/>
    <text x="34" y="112" font-family="Plus Jakarta Sans" font-weight="800" font-size="104" fill="#D33A3A" letter-spacing="-6">A</text>
    <path transform="translate(38 128) scale(3)" d="M12 21.5C6.5 17.5 3 14 3 9.6 3 6.5 5.4 4 8.3 4c1.6 0 3 .8 3.7 2.1C12.7 4.8 14.1 4 15.7 4 18.6 4 21 6.5 21 9.6c0 4.4-3.5 7.9-9 11.9z" fill="#D33A3A"/>
    <path transform="translate(96 160) scale(7.6)" d="M12 21.5C6.5 17.5 3 14 3 9.6 3 6.5 5.4 4 8.3 4c1.6 0 3 .8 3.7 2.1C12.7 4.8 14.1 4 15.7 4 18.6 4 21 6.5 21 9.6c0 4.4-3.5 7.9-9 11.9z" fill="#D33A3A"/>
  </g>
</g></svg>